<svg xmlns="http://www.w3.org/2000/svg" width="30.61" height="32" viewBox="0 0 30.61 32">
  <g id="tablet-mobile" transform="translate(0 2)">
    <path id="Path_39" data-name="Path 39" d="M12.6,8.243H2.793A1.983,1.983,0,0,0,.811,10.226V33.017A1.983,1.983,0,0,0,2.793,35H12.6a1.983,1.983,0,0,0,1.983-1.983V10.226A1.983,1.983,0,0,0,12.6,8.243ZM9.453,9.7a.268.268,0,1,1,.268-.268.268.268,0,0,1-.268.268Zm-3.72-.025a.243.243,0,1,1,0-.485H8.548a.243.243,0,1,1,0,.485Zm-.623.687h5.172a1.264,1.264,0,0,0,1.134-.952H12.6a.817.817,0,0,1,.816.816V33.017a.817.817,0,0,1-.816.816H2.793a.817.817,0,0,1-.816-.816V10.226a.817.817,0,0,1,.816-.816H3.976a1.264,1.264,0,0,0,1.134.952Z" transform="translate(-0.811 -5)" fill="#fff"/>
    <path id="Path_40" data-name="Path 40" d="M27.823,0H9.95a1.708,1.708,0,0,0-1.6,1.792V6.114H9.3V1.792a.7.7,0,0,1,.647-.725H27.823a.7.7,0,0,1,.647.725V27.529H13.7v2.658A3.5,3.5,0,0,1,13.2,32H27.823a1.708,1.708,0,0,0,1.6-1.792V1.792A1.708,1.708,0,0,0,27.823,0ZM18.886,30.8a.99.99,0,1,1,.877-.983A.935.935,0,0,1,18.886,30.8Z" transform="translate(1.189 -2)" fill="#fff"/>
  </g>
</svg>
