<svg xmlns="http://www.w3.org/2000/svg" xmlns:xlink="http://www.w3.org/1999/xlink" version="1.1" width="256" height="256" viewBox="0 0 256 256" xml:space="preserve">

<defs>
</defs>
<g style="stroke: none; stroke-width: 0; stroke-dasharray: none; stroke-linecap: butt; stroke-linejoin: miter; stroke-miterlimit: 10; fill: none; fill-rule: nonzero; opacity: 1;" transform="translate(1.4065934065934016 1.4065934065934016) scale(2.81 2.81)" >
	<path d="M 74.564 13.138 c -1.914 -2.502 -2.968 -5.613 -2.968 -8.763 V 3.063 C 71.596 1.374 70.223 0 68.533 0 H 21.467 c -1.689 0 -3.063 1.374 -3.063 3.063 v 1.313 c 0 3.15 -1.054 6.261 -2.968 8.763 c -2.307 3.016 -3.578 6.769 -3.578 10.566 v 1.098 v 40.395 v 1.098 c 0 3.798 1.271 7.55 3.579 10.567 c 1.914 2.501 2.968 5.611 2.968 8.762 v 1.311 c 0 1.69 1.374 3.065 3.064 3.065 h 47.063 c 1.69 0 3.065 -1.374 3.065 -3.065 v -1.311 c 0 -3.15 1.054 -6.261 2.968 -8.763 c 2.307 -3.016 3.578 -6.769 3.578 -10.566 v -1.098 V 24.803 v -1.098 C 78.142 19.907 76.871 16.154 74.564 13.138 z M 61.838 78.535 H 28.162 c -7.354 0 -13.337 -5.983 -13.337 -13.337 V 24.803 c 0 -7.354 5.983 -13.337 13.337 -13.337 h 33.677 c 7.354 0 13.337 5.983 13.337 13.337 v 40.395 C 75.175 72.551 69.192 78.535 61.838 78.535 z M 21.371 3.063 c 0 -0.053 0.043 -0.096 0.096 -0.096 h 47.066 c 0.053 0 0.096 0.043 0.096 0.096 v 1.313 c 0 2.127 0.412 4.235 1.168 6.212 c -2.357 -1.325 -5.069 -2.089 -7.959 -2.089 H 28.162 c -2.89 0 -5.602 0.764 -7.958 2.088 c 0.756 -1.977 1.168 -4.085 1.168 -6.212 V 3.063 z M 68.629 86.935 c 0 0.054 -0.043 0.098 -0.098 0.098 H 21.468 c -0.054 0 -0.097 -0.043 -0.097 -0.098 v -1.311 c 0 -2.127 -0.412 -4.235 -1.168 -6.211 c 2.356 1.325 5.068 2.088 7.958 2.088 h 33.677 c 2.89 0 5.602 -0.764 7.959 -2.089 c -0.756 1.977 -1.168 4.085 -1.168 6.212 V 86.935 z" style="stroke: none; stroke-width: 1; stroke-dasharray: none; stroke-linecap: butt; stroke-linejoin: miter; stroke-miterlimit: 10; fill: rgb(0,0,0); fill-rule: nonzero; opacity: 1;" transform=" matrix(1 0 0 1 0 0) " stroke-linecap="round" />
	<path d="M 52.418 72.714 H 37.582 c -0.82 0 -1.484 -0.664 -1.484 -1.484 s 0.664 -1.484 1.484 -1.484 h 14.835 c 0.819 0 1.484 0.664 1.484 1.484 S 53.237 72.714 52.418 72.714 z" style="stroke: none; stroke-width: 1; stroke-dasharray: none; stroke-linecap: butt; stroke-linejoin: miter; stroke-miterlimit: 10; fill: rgb(0,0,0); fill-rule: nonzero; opacity: 1;" transform=" matrix(1 0 0 1 0 0) " stroke-linecap="round" />
</g>
</svg>